<svg xmlns="http://www.w3.org/2000/svg" viewBox="0 0 491.2809 238.41512"><title>logo</title><path d="M45.12282,71.21655l5.31773,7.50584a27.53125,27.53125,0,0,1-8.75694,4.95217,31.11451,31.11451,0,0,1-10.52952,1.8248q-12.61617,0-19.70423-7.767-7.09254-7.76509-7.0903-20.79867A33.90632,33.90632,0,0,1,7.59137,41.86909a24.89569,24.89569,0,0,1,9.33139-10.42582,26.71706,26.71706,0,0,1,14.43873-3.80552,29.16755,29.16755,0,0,1,19.07906,6.67252L45.01986,41.608a23.58009,23.58009,0,0,0-13.44949-4.58736,13.13742,13.13742,0,0,0-10.84285,4.95217q-3.96144,4.95292-3.96144,14.961,0,9.80064,3.96144,14.38651,3.96144,4.58922,10.84285,4.58736Q38.1392,75.90761,45.12282,71.21655Z" transform="translate(-4.35955 -2.09581)" fill="#5c5c5c"/><path d="M71.86364,35.874a22.26482,22.26482,0,0,1,7.7677-6.151,21.65592,21.65592,0,0,1,9.32989-2.08516q7.60954,0,11.468,4.22255,3.85625,4.22218,3.85848,12.14542V84.14382H92.61083V45.77831q0-4.8992-1.877-7.03733-1.87553-2.13515-6.04585-2.13739a12.19636,12.19636,0,0,0-7.03808,2.34628,22.87111,22.87111,0,0,0-5.78624,5.78624V84.14382H60.18821V7.1002l11.67542-1.2511Z" transform="translate(-4.35955 -2.09581)" fill="#5c5c5c"/><path d="M162.11577,29.09775l-1.98146,20.32941h-8.34065V38.168a13.77512,13.77512,0,0,0-10.00729,4.58661q-4.277,4.484-6.67252,12.61468V75.80317h11.05025v8.34065H115.30516V75.80317h8.13176V37.43765h-8.13176V29.09775h16.99315l2.08591,12.71912q3.22958-7.08918,7.87065-10.58174a18.60745,18.60745,0,0,1,11.52025-3.49293A26.23968,26.23968,0,0,1,162.11577,29.09775Z" transform="translate(-4.35955 -2.09581)" fill="#5c5c5c"/><path d="M199.66662,75.595H214.6783v8.5488H171.62173V75.595h16.368V37.64654H172.144v-8.5488h27.52266ZM197.1122,4.2332A7.15943,7.15943,0,0,1,199.24884,9.498a6.986,6.986,0,0,1-2.13664,5.21254,8.29544,8.29544,0,0,1-10.99952,0A7.06775,7.06775,0,0,1,184.02827,9.498a7.11113,7.11113,0,0,1,2.13664-5.317,7.51139,7.51139,0,0,1,5.47439-2.08516A7.41409,7.41409,0,0,1,197.1122,4.2332Z" transform="translate(-4.35955 -2.09581)" fill="#5c5c5c"/><path d="M254.7015,74.65651a6.10305,6.10305,0,0,0,3.18109-5.42068,7.32357,7.32357,0,0,0-.93851-3.91,8.52409,8.52409,0,0,0-3.754-2.81478,53.20656,53.20656,0,0,0-8.44361-2.76256q-9.071-2.29181-13.60616-5.89068-4.53439-3.59663-4.53439-10.37285a13.55925,13.55925,0,0,1,5.9429-11.52025q5.94216-4.32513,16.05464-4.327,12.19765,0,20.95459,6.35993l-5.00439,7.40214a27.87467,27.87467,0,0,0-15.63686-4.89995q-10.42731,0-10.42656,6.0466a4.99256,4.99256,0,0,0,1.19962,3.44,11.1605,11.1605,0,0,0,4.1181,2.55442,78.94383,78.94383,0,0,0,8.6525,2.76256q8.96583,2.5022,13.39727,6.151,4.4292,3.65146,4.42995,10.94729a14.08544,14.08544,0,0,1-6.98436,12.7706q-6.98511,4.32737-17.30648,4.327-13.65913,0-22.62272-7.71473l6.1503-7.08956a29.039,29.039,0,0,0,7.66326,4.32625,24.3991,24.3991,0,0,0,8.80916,1.61591Q251.52265,76.63723,254.7015,74.65651Z" transform="translate(-4.35955 -2.09581)" fill="#5c5c5c"/><path d="M319.84962,84.352a32.87684,32.87684,0,0,1-8.75694,1.1474q-9.38212,0-14.491-4.84773-5.10958-4.84884-5.10884-13.18838V37.64654H279.29524v-8.5488h12.19765V16.79565l11.67691-1.35554V29.09775h18.66128l-1.3548,8.5488H303.1698V67.35881q0,4.484,2.29331,6.6203,2.29181,2.13739,7.2977,2.13739A20.68325,20.68325,0,0,0,322.977,73.50986l4.17033,7.71473A26.8353,26.8353,0,0,1,319.84962,84.352Z" transform="translate(-4.35955 -2.09581)" fill="#5c5c5c"/><path d="M343.71224,32.48623a8.86209,8.86209,0,0,1,6.56808-2.76331,8.98676,8.98676,0,0,1,6.67252,2.76331,9.44152,9.44152,0,0,1,0,13.23985,8.9805,8.9805,0,0,1-6.67252,2.76256,8.85581,8.85581,0,0,1-6.56808-2.76256,9.43781,9.43781,0,0,1,0-13.23985Zm0,37.06219a9.5018,9.5018,0,0,1,13.29282,0,9.0405,9.0405,0,0,1,2.65737,6.56808,9.16076,9.16076,0,0,1-2.65737,6.67178,9.38079,9.38079,0,0,1-13.29282-13.23985Z" transform="translate(-4.35955 -2.09581)" fill="#5c5c5c"/><path d="M419.40031,75.33466a5.59949,5.59949,0,0,0,3.23182,2.24108L419.921,85.49936q-8.65473-1.04407-11.36358-7.611a19.16865,19.16865,0,0,1-7.55881,5.68179,25.187,25.187,0,0,1-9.95507,1.92924q-8.34364,0-13.2406-4.6918-4.90144-4.69106-4.89995-12.40579a15.23594,15.23594,0,0,1,6.8277-13.345q6.82844-4.69106,19.34017-4.69106h7.81843V46.82052q0-5.21142-3.12737-7.61029-3.12663-2.397-9.07027-2.39775a37.10551,37.10551,0,0,0-6.777.72962,56.97725,56.97725,0,0,0-7.81843,2.08516l-2.91848-8.23621a54.24587,54.24587,0,0,1,19.28646-3.75329q10.94655,0,16.47242,4.79625,5.52363,4.79625,5.52512,13.65689V70.69508A9.00113,9.00113,0,0,0,419.40031,75.33466Zm-17.87944-.26111a14.06033,14.06033,0,0,0,5.36846-5.21254V57.66336H400.4257q-7.92287,0-11.57247,2.65812a8.89839,8.89839,0,0,0-3.6481,7.66326q0,4.37772,2.34553,6.67178,2.34553,2.29517,6.93214,2.29405A14.34137,14.34137,0,0,0,401.52088,75.07355Z" transform="translate(-4.35955 -2.09581)" fill="#5c5c5c"/><path d="M481.34645,31.18291q2.91848,3.54515,2.92,12.0932V84.14382H473.94431V44.8398a20.21232,20.21232,0,0,0-.6774-6.35919A2.83215,2.83215,0,0,0,470.2962,36.708q-4.38,0-8.13176,5.52587V84.14382h-9.48805V44.8398a20.21232,20.21232,0,0,0-.6774-6.35919,2.83215,2.83215,0,0,0-2.97071-1.77258q-4.38,0-8.13176,5.52587V84.14382H430.47145V29.09775h8.75694l.83407,5.94216a22.56728,22.56728,0,0,1,5.31623-5.52512,11.07383,11.07383,0,0,1,6.46363-1.877q7.29621,0,9.38361,6.98511a20.41225,20.41225,0,0,1,5.42068-5.16031,12.33356,12.33356,0,0,1,6.67252-1.8248A9.8404,9.8404,0,0,1,481.34645,31.18291Z" transform="translate(-4.35955 -2.09581)" fill="#5c5c5c"/><path d="M118.57876,122.43622q6.34278,7.708,6.34576,26.28947v88.83915H102.48831V152.12537q0-9.97074-1.47416-13.82474-1.47491-3.85065-6.45767-3.85252-9.51864,0-17.678,12.01114v91.1056H56.25513V152.12537q0-9.97074-1.47267-13.82474-1.47715-3.85065-6.45916-3.85252-9.51864,0-17.678,12.01114v91.1056H7.98229V117.90407H27.01957l1.81286,12.91757a48.99116,48.99116,0,0,1,11.559-12.01114,24.06759,24.06759,0,0,1,14.05079-4.07931q15.86142,0,20.39655,15.184a44.33405,44.33405,0,0,1,11.78434-11.2181,26.8091,26.8091,0,0,1,14.50438-3.96591Q112.22852,114.73119,118.57876,122.43622Z" transform="translate(-4.35955 -2.09581)" fill="#0b0b0b"/><path d="M179.1313,212.06915q8.95016,8.72635,22.54961,8.72486a48.87255,48.87255,0,0,0,15.97854-2.60589,69.51591,69.51591,0,0,0,15.52346-7.81918l10.87866,15.41081a60.81708,60.81708,0,0,1-19.71766,10.87866,73.46206,73.46206,0,0,1-23.79548,3.85252q-27.42344,0-42.60746-17.11028-15.18551-17.10916-15.18327-45.6662a76.82673,76.82673,0,0,1,6.57255-32.295A52.12906,52.12906,0,0,1,168.366,122.88981q12.46174-8.159,29.00876-8.15862,23.79772,0,37.73437,15.97705,13.93889,15.9778,13.9374,43.85334a78.63528,78.63528,0,0,1-.67889,11.3315H169.04642Q170.1789,203.3469,179.1313,212.06915Zm-1.47267-69.68922q-7.708,8.83826-8.839,26.28947h55.52428q-.45657-16.99725-7.25144-26.06268-6.79935-9.06207-19.49087-9.06505Q185.36367,133.54168,177.65863,142.37993Z" transform="translate(-4.35955 -2.09581)" fill="#0b0b0b"/><path d="M271.95725,117.90407h21.98411l1.81286,15.63761a51.89837,51.89837,0,0,1,17.56312-13.93814,48.12723,48.12723,0,0,1,21.19033-4.87234q16.53956,0,24.92945,9.29185,8.38169,9.29483,8.38542,26.28872v87.25308h-25.383V163.00328a89.745,89.745,0,0,0-1.24588-17.11028q-1.24886-6.00258-4.87309-8.839-3.628-2.8312-10.87866-2.83269a27.26218,27.26218,0,0,0-15.52346,4.98574,48.09385,48.09385,0,0,0-12.57812,12.46473v85.89306h-25.383Z" transform="translate(-4.35955 -2.09581)" fill="#0b0b0b"/><path d="M488.61431,218.41491q2.03891,3.28777,7.02614,4.87234l-5.89366,17.22367q-18.81347-2.26831-24.70266-16.544a41.705,41.705,0,0,1-16.43064,12.35133,54.76569,54.76569,0,0,1-21.64243,4.19271q-18.13533,0-28.782-10.19828-10.6556-10.1979-10.65186-26.96911,0-18.809,14.84457-29.00876,14.84084-10.1979,42.039-10.19828h16.99763v-7.705q0-11.33038-6.79935-16.544-6.79711-5.21142-19.71617-5.21254a80.70544,80.70544,0,0,0-14.73118,1.58607,123.73925,123.73925,0,0,0-16.99763,4.5329l-6.34576-17.90406q21.52829-8.159,41.92708-8.15862,23.79548,0,35.80811,10.42507,12.00965,10.42619,12.01114,29.6884v53.48463Q486.57465,215.12863,488.61431,218.41491Zm-38.86685-.567a30.58011,30.58011,0,0,0,11.67095-11.3315V180.00091H447.36761q-17.22666,0-25.15625,5.77877-7.9363,5.77877-7.93183,16.65743,0,9.51864,5.09839,14.50438,5.10063,4.98761,15.07137,4.98574A31.17818,31.17818,0,0,0,449.74746,217.84793Z" transform="translate(-4.35955 -2.09581)" fill="#0b0b0b"/></svg>