<?xml version="1.0" encoding="utf-8"?>
<!-- Generator: Adobe Illustrator 21.0.0, SVG Export Plug-In . SVG Version: 6.00 Build 0)  -->
<svg version="1.1" id="Layer_1" xmlns="http://www.w3.org/2000/svg" xmlns:xlink="http://www.w3.org/1999/xlink" x="0px" y="0px"
	 viewBox="0 0 492.6 241.5" style="enable-background:new 0 0 492.6 241.5;" xml:space="preserve">
<style type="text/css">
	.st0{fill:#A5A8AA;}
	.st1{fill:#DA0B86;}
	.st2{fill:#0B0B0B;}
</style>
<title>logo</title>
<path class="st0" d="M42.1,70.6l5.3,7.5c-2.6,2.2-5.6,3.9-8.8,5c-3.4,1.2-6.9,1.8-10.5,1.8c-8.4,0-15-2.6-19.7-7.8
	C3.7,72,1.3,65,1.3,56.3c-0.1-5.2,1-10.4,3.2-15.1c2-4.3,5.3-7.9,9.3-10.4c4.4-2.6,9.4-3.9,14.4-3.8c7-0.1,13.7,2.2,19.1,6.7
	L41.9,41c-3.9-2.9-8.6-4.5-13.4-4.6c-4.2-0.2-8.2,1.7-10.8,5s-4,8.3-4,15c0,6.5,1.3,11.3,4,14.4c2.6,3.1,6.3,4.6,10.8,4.6
	C32.9,75.3,37.4,73.7,42.1,70.6z"/>
<path class="st0" d="M68.8,35.3c2.1-2.6,4.7-4.7,7.8-6.2c2.9-1.4,6.1-2.1,9.3-2.1c5.1,0,8.9,1.4,11.5,4.2s3.9,6.9,3.9,12.1v40.2
	H89.6V45.2c0-3.3-0.6-5.6-1.9-7s-3.3-2.1-6-2.1c-2.5,0-5,0.9-7,2.3c-2.3,1.6-4.2,3.5-5.8,5.8v39.3H57.1v-77l11.7-1.3V35.3z"/>
<path class="st0" d="M159.1,28.5l-2,20.3h-8.3V37.6c-3.8,0.1-7.5,1.7-10,4.6c-2.9,3-5.1,7.2-6.7,12.6v20.4h11.1v8.3h-30.9v-8.3h8.1
	V36.8h-8.1v-8.3h17l2.1,12.7c2.2-4.7,4.8-8.3,7.9-10.6c3.3-2.4,7.4-3.6,11.5-3.5C153.6,27.1,156.4,27.6,159.1,28.5z"/>
<path class="st0" d="M196.6,75h15v8.5h-43.1V75h16.4V37.1h-15.8v-8.6h27.5V75z M194.1,3.6c1.4,1.4,2.2,3.3,2.1,5.3
	c0.1,2-0.7,3.9-2.1,5.2c-3.1,2.8-7.9,2.8-11,0c-1.4-1.4-2.1-3.3-2.1-5.2c-0.1-2,0.7-3.9,2.1-5.3c1.5-1.4,3.4-2.2,5.5-2.1
	C190.6,1.4,192.6,2.2,194.1,3.6z"/>
<path class="st0" d="M251.6,74.1c2-1.1,3.2-3.2,3.2-5.4c0.1-1.4-0.3-2.7-0.9-3.9c-1-1.3-2.3-2.2-3.8-2.8c-2.7-1.2-5.6-2.1-8.4-2.8
	c-6-1.5-10.6-3.5-13.6-5.9s-4.5-5.9-4.5-10.4c-0.1-4.6,2.1-8.9,5.9-11.5c4-2.9,9.3-4.3,16.1-4.3c8.1,0,15.1,2.1,21,6.4l-5,7.4
	C257,37.7,251.5,36,246,36c-7,0-10.4,2-10.4,6c0,1.3,0.4,2.5,1.2,3.4c1.2,1.1,2.6,2,4.1,2.6c2.8,1.1,5.7,2,8.7,2.8
	c6,1.7,10.4,3.7,13.4,6.2c3,2.4,4.4,6.1,4.4,10.9c0.2,5.2-2.5,10.1-7,12.8c-4.7,2.9-10.4,4.3-17.3,4.3c-9.1,0-16.6-2.6-22.6-7.7
	l6.2-7.1c2.3,1.8,4.9,3.3,7.7,4.3c2.8,1.1,5.8,1.6,8.8,1.6C246.6,76,249.5,75.4,251.6,74.1z"/>
<path class="st0" d="M316.8,83.8c-2.9,0.8-5.8,1.2-8.8,1.1c-6.3,0-11.1-1.6-14.5-4.8c-3.4-3.2-5.1-7.6-5.1-13.2V37.1h-12.2v-8.6
	h12.2V16.2l11.7-1.4v13.7h18.7l-1.4,8.5h-17.3v29.7c0,3,0.8,5.2,2.3,6.6s4,2.1,7.3,2.1c3.6,0,7.1-0.9,10.2-2.6l4.2,7.7
	C321.8,82,319.4,83.1,316.8,83.8z"/>
<path class="st1" d="M340.7,31.9c1.7-1.8,4.1-2.8,6.6-2.8c2.5-0.1,4.9,0.9,6.7,2.8c3.6,3.7,3.6,9.6,0,13.2c-1.7,1.8-4.2,2.8-6.7,2.8
	s-4.9-1-6.6-2.8C337,41.5,337,35.6,340.7,31.9z M340.7,69c3.7-3.6,9.6-3.6,13.3,0c1.7,1.7,2.7,4.1,2.7,6.6c0.1,2.5-0.9,4.9-2.7,6.7
	c-3.7,3.7-9.6,3.6-13.3,0C337,78.5,337,72.6,340.7,69z"/>
<path class="st0" d="M416.3,74.7c0.8,1.1,1.9,1.9,3.2,2.2l-2.7,7.9c-5.8-0.7-9.6-3.2-11.4-7.6c-2,2.5-4.6,4.4-7.6,5.7
	c-3.2,1.3-6.5,2-10,1.9c-5.6,0-10-1.6-13.2-4.7c-3.3-3.1-4.9-7.3-4.9-12.4c-0.2-5.3,2.4-10.4,6.8-13.3c4.6-3.1,11-4.7,19.3-4.7h7.8
	v-3.5c0-3.5-1-6-3.1-7.6s-5.1-2.4-9.1-2.4c-2.3,0-4.5,0.3-6.8,0.7c-2.7,0.5-5.3,1.2-7.8,2.1l-2.9-8.2c6.1-2.4,12.7-3.7,19.3-3.8
	c7.3,0,12.8,1.6,16.5,4.8s5.5,7.7,5.5,13.7v24.6C415.3,71.7,415.6,73.3,416.3,74.7z M398.5,74.5c2.2-1.2,4.1-3,5.4-5.2V57.1h-6.5
	c-5.3,0-9.1,0.9-11.6,2.7c-2.4,1.8-3.8,4.7-3.6,7.7c0,2.9,0.8,5.1,2.3,6.7c1.6,1.5,3.9,2.3,6.9,2.3
	C393.9,76.3,396.3,75.7,398.5,74.5z"/>
<path class="st0" d="M478.3,30.6c1.9,2.4,2.9,6.4,2.9,12.1v40.8h-10.3V44.2c0.1-2.1-0.1-4.3-0.7-6.4c-0.5-1.2-1.7-1.9-3-1.8
	c-2.9,0-5.6,1.8-8.1,5.5v42h-9.5V44.2c0.1-2.1-0.1-4.3-0.7-6.4c-0.5-1.2-1.7-1.9-3-1.8c-2.9,0-5.6,1.8-8.1,5.5v42h-10.4v-55h8.8
	l0.8,5.9c1.4-2.1,3.2-4,5.3-5.5c1.9-1.3,4.2-1.9,6.5-1.9c4.9,0,8,2.3,9.4,7c1.5-2,3.3-3.8,5.4-5.2c2-1.2,4.3-1.9,6.7-1.8
	C473.3,26.9,476.3,28.2,478.3,30.6z"/>
<path class="st2" d="M115.5,121.8c4.2,5.1,6.3,13.9,6.3,26.3v88.8H99.4v-85.4c0-6.6-0.5-11.3-1.5-13.8c-1-2.6-3.1-3.9-6.5-3.9
	c-6.3,0-12.2,4-17.7,12v91.1H53.2v-85.4c0-6.6-0.5-11.3-1.5-13.8c-1-2.6-3.1-3.9-6.5-3.9c-6.3,0-12.2,4-17.7,12v91.1H4.9V117.3h19
	l1.8,12.9c3.1-4.6,7-8.7,11.6-12c4.1-2.8,9.1-4.2,14.1-4.1c10.6,0,17.4,5.1,20.4,15.2c3.2-4.4,7.2-8.2,11.8-11.2
	c4.4-2.7,9.4-4.1,14.5-4C105.5,114.1,111.3,116.7,115.5,121.8z"/>
<path class="st2" d="M176.1,211.5c6,5.8,13.5,8.7,22.5,8.7c5.4,0,10.8-0.9,16-2.6c5.5-1.9,10.7-4.6,15.5-7.8l10.9,15.4
	c-5.8,4.8-12.5,8.5-19.7,10.9c-7.7,2.6-15.7,3.9-23.8,3.9c-18.3,0-32.5-5.7-42.6-17.1c-10.1-11.4-15.2-26.6-15.2-45.7
	c-0.2-11.1,2.1-22.1,6.6-32.3c4-9.2,10.7-17,19-22.5c8.3-5.4,18-8.2,29-8.2c15.9,0,28.4,5.3,37.7,16s13.9,25.3,13.9,43.9
	c0,3.8-0.2,7.6-0.7,11.3h-79.3C166.7,196.9,170.1,205.7,176.1,211.5z M174.6,141.8c-5.1,5.9-8.1,14.7-8.8,26.3h55.5
	c-0.3-11.3-2.7-20-7.3-26.1c-4.5-6-11-9.1-19.5-9.1C186.4,132.9,179.7,135.9,174.6,141.8L174.6,141.8z"/>
<path class="st2" d="M268.9,117.3h22l1.8,15.6c4.8-5.9,10.8-10.6,17.6-13.9c6.6-3.2,13.8-4.9,21.2-4.9c11,0,19.3,3.1,24.9,9.3
	c5.6,6.2,8.4,15,8.4,26.3V237h-25.4v-74.6c0.1-5.7-0.3-11.5-1.2-17.1c-0.8-4-2.5-6.9-4.9-8.8c-2.4-1.9-6-2.8-10.9-2.8
	c-5.6,0-11,1.8-15.5,5c-4.9,3.3-9.2,7.6-12.6,12.5v85.9h-25.4V117.3z"/>
<path class="st2" d="M485.6,217.8c1.4,2.2,3.7,3.8,7,4.9l-5.9,17.2c-12.5-1.5-20.8-7-24.7-16.5c-4.4,5.4-10,9.7-16.4,12.4
	c-6.9,2.9-14.2,4.3-21.6,4.2c-12.1,0-21.7-3.4-28.8-10.2c-7.1-6.8-10.7-15.8-10.7-27c0-12.5,4.9-22.2,14.8-29s23.9-10.2,42-10.2h17
	v-7.7c0-7.6-2.3-13.1-6.8-16.5c-4.5-3.5-11.1-5.2-19.7-5.2c-4.9,0.1-9.9,0.6-14.7,1.6c-5.8,1.1-11.4,2.6-17,4.5l-6.3-17.9
	c14.4-5.4,28.3-8.2,41.9-8.2c15.9,0,27.8,3.5,35.8,10.4c8,7,12,16.8,12,29.7v53.5C483.5,212.3,484.2,215.6,485.6,217.8z
	 M446.7,217.3c4.8-2.7,8.9-6.6,11.7-11.3v-26.5h-14.1c-11.5,0-19.9,1.9-25.2,5.8c-5.3,3.9-7.9,9.4-7.9,16.7c0,6.3,1.7,11.2,5.1,14.5
	s8.4,5,15.1,5C436.8,221.3,442,219.9,446.7,217.3L446.7,217.3z"/>
</svg>
