<?xml version="1.0" encoding="utf-8"?>
<!-- Generator: Adobe Illustrator 21.0.0, SVG Export Plug-In . SVG Version: 6.00 Build 0)  -->
<svg version="1.1" id="Layer_1" xmlns="http://www.w3.org/2000/svg" xmlns:xlink="http://www.w3.org/1999/xlink" x="0px" y="0px"
	 viewBox="0 0 491.3 238.4" style="enable-background:new 0 0 491.3 238.4;" xml:space="preserve">
<style type="text/css">
	.st0{fill:#E2E8F0;}
	.st1{fill:#C21382;}
	.st2{fill:#FFFFFF;}
</style>
<title>logo</title>
<path class="st0" d="M40.8,69.1l5.3,7.5c-2.6,2.2-5.6,3.9-8.8,5c-3.4,1.2-6.9,1.8-10.5,1.8c-8.4,0-15-2.6-19.7-7.8
	C2.4,70.5,0,63.5,0,54.8c-0.1-5.2,1-10.4,3.2-15.1c2-4.3,5.3-7.9,9.3-10.4c4.4-2.6,9.4-3.9,14.4-3.8c7-0.1,13.7,2.2,19.1,6.7
	l-5.4,7.3c-3.9-2.9-8.6-4.5-13.4-4.6c-4.2-0.2-8.2,1.7-10.8,5s-4,8.3-4,15c0,6.5,1.3,11.3,4,14.4c2.6,3.1,6.3,4.6,10.8,4.6
	C31.6,73.8,36.1,72.2,40.8,69.1z"/>
<path class="st0" d="M67.5,33.8c2.1-2.6,4.7-4.7,7.8-6.2c2.9-1.4,6.1-2.1,9.3-2.1c5.1,0,8.9,1.4,11.5,4.2s3.9,6.9,3.9,12.1V82H88.3
	V43.7c0-3.3-0.6-5.6-1.9-7s-3.3-2.1-6-2.1c-2.5,0-5,0.9-7,2.3c-2.3,1.6-4.2,3.5-5.8,5.8V82H55.8V5l11.7-1.3V33.8z"/>
<path class="st0" d="M157.8,27l-2,20.3h-8.3V36.1c-3.8,0.1-7.5,1.7-10,4.6c-2.9,3-5.1,7.2-6.7,12.6v20.4h11.1V82H111v-8.3h8.1V35.3
	H111V27h17l2.1,12.7c2.2-4.7,4.8-8.3,7.9-10.6c3.3-2.4,7.4-3.6,11.5-3.5C152.3,25.6,155.1,26.1,157.8,27z"/>
<path class="st0" d="M195.3,73.5h15V82h-43.1v-8.5h16.4V35.6h-15.8V27h27.5V73.5z M192.8,2.1c1.4,1.4,2.2,3.3,2.1,5.3
	c0.1,2-0.7,3.9-2.1,5.2c-3.1,2.8-7.9,2.8-11,0c-1.4-1.4-2.1-3.3-2.1-5.2c-0.1-2,0.7-3.9,2.1-5.3c1.5-1.4,3.4-2.2,5.5-2.1
	C189.3-0.1,191.3,0.7,192.8,2.1z"/>
<path class="st0" d="M250.3,72.6c2-1.1,3.2-3.2,3.2-5.4c0.1-1.4-0.3-2.7-0.9-3.9c-1-1.3-2.3-2.2-3.8-2.8c-2.7-1.2-5.6-2.1-8.4-2.8
	c-6-1.5-10.6-3.5-13.6-5.9s-4.5-5.9-4.5-10.4c-0.1-4.6,2.1-8.9,5.9-11.5c4-2.9,9.3-4.3,16.1-4.3c8.1,0,15.1,2.1,21,6.4l-5,7.4
	c-4.6-3.2-10.1-4.9-15.6-4.9c-7,0-10.4,2-10.4,6c0,1.3,0.4,2.5,1.2,3.4c1.2,1.1,2.6,2,4.1,2.6c2.8,1.1,5.7,2,8.7,2.8
	c6,1.7,10.4,3.7,13.4,6.2c3,2.4,4.4,6.1,4.4,10.9c0.2,5.2-2.5,10.1-7,12.8c-4.7,2.9-10.4,4.3-17.3,4.3c-9.1,0-16.6-2.6-22.6-7.7
	l6.2-7.1c2.3,1.8,4.9,3.3,7.7,4.3c2.8,1.1,5.8,1.6,8.8,1.6C245.3,74.5,248.2,73.9,250.3,72.6z"/>
<path class="st0" d="M315.5,82.3c-2.9,0.8-5.8,1.2-8.8,1.1c-6.3,0-11.1-1.6-14.5-4.8c-3.4-3.2-5.1-7.6-5.1-13.2V35.6h-12.2V27h12.2
	V14.7l11.7-1.4V27h18.7l-1.4,8.5h-17.3v29.7c0,3,0.8,5.2,2.3,6.6s4,2.1,7.3,2.1c3.6,0,7.1-0.9,10.2-2.6l4.2,7.7
	C320.5,80.5,318.1,81.6,315.5,82.3z"/>
<path class="st1" d="M339.4,30.4c1.7-1.8,4.1-2.8,6.6-2.8c2.5-0.1,4.9,0.9,6.7,2.8c3.6,3.7,3.6,9.6,0,13.2c-1.7,1.8-4.2,2.8-6.7,2.8
	s-4.9-1-6.6-2.8C335.7,40,335.7,34.1,339.4,30.4z M339.4,67.5c3.7-3.6,9.6-3.6,13.3,0c1.7,1.7,2.7,4.1,2.7,6.6
	c0.1,2.5-0.9,4.9-2.7,6.7c-3.7,3.7-9.6,3.6-13.3,0C335.7,77,335.7,71.1,339.4,67.5z"/>
<path class="st0" d="M415,73.2c0.8,1.1,1.9,1.9,3.2,2.2l-2.7,7.9c-5.8-0.7-9.6-3.2-11.4-7.6c-2,2.5-4.6,4.4-7.6,5.7
	c-3.2,1.3-6.5,2-10,1.9c-5.6,0-10-1.6-13.2-4.7c-3.3-3.1-4.9-7.3-4.9-12.4c-0.2-5.3,2.4-10.4,6.8-13.3c4.6-3.1,11-4.7,19.3-4.7h7.8
	v-3.5c0-3.5-1-6-3.1-7.6s-5.1-2.4-9.1-2.4c-2.3,0-4.5,0.3-6.8,0.7c-2.7,0.5-5.3,1.2-7.8,2.1l-2.9-8.2c6.1-2.4,12.7-3.7,19.3-3.8
	c7.3,0,12.8,1.6,16.5,4.8s5.5,7.7,5.5,13.7v24.6C414,70.2,414.3,71.8,415,73.2z M397.2,73c2.2-1.2,4.1-3,5.4-5.2V55.6h-6.5
	c-5.3,0-9.1,0.9-11.6,2.7c-2.4,1.8-3.8,4.7-3.6,7.7c0,2.9,0.8,5.1,2.3,6.7c1.6,1.5,3.9,2.3,6.9,2.3C392.6,74.8,395,74.2,397.2,73z"
	/>
<path class="st0" d="M477,29.1c1.9,2.4,2.9,6.4,2.9,12.1V82h-10.3V42.7c0.1-2.1-0.1-4.3-0.7-6.4c-0.5-1.2-1.7-1.9-3-1.8
	c-2.9,0-5.6,1.8-8.1,5.5v42h-9.5V42.7c0.1-2.1-0.1-4.3-0.7-6.4c-0.5-1.2-1.7-1.9-3-1.8c-2.9,0-5.6,1.8-8.1,5.5v42h-10.4V27h8.8
	l0.8,5.9c1.4-2.1,3.2-4,5.3-5.5c1.9-1.3,4.2-1.9,6.5-1.9c4.9,0,8,2.3,9.4,7c1.5-2,3.3-3.8,5.4-5.2c2-1.2,4.3-1.9,6.7-1.8
	C472,25.4,475,26.7,477,29.1z"/>
<path class="st2" d="M114.2,120.3c4.2,5.1,6.3,13.9,6.3,26.3v88.8H98.1V150c0-6.6-0.5-11.3-1.5-13.8c-1-2.6-3.1-3.9-6.5-3.9
	c-6.3,0-12.2,4-17.7,12v91.1H51.9V150c0-6.6-0.5-11.3-1.5-13.8c-1-2.6-3.1-3.9-6.5-3.9c-6.3,0-12.2,4-17.7,12v91.1H3.6V115.8h19
	l1.8,12.9c3.1-4.6,7-8.7,11.6-12c4.1-2.8,9.1-4.2,14.1-4.1c10.6,0,17.4,5.1,20.4,15.2c3.2-4.4,7.2-8.2,11.8-11.2
	c4.4-2.7,9.4-4.1,14.5-4C104.2,112.6,110,115.2,114.2,120.3z"/>
<path class="st2" d="M174.8,210c6,5.8,13.5,8.7,22.5,8.7c5.4,0,10.8-0.9,16-2.6c5.5-1.9,10.7-4.6,15.5-7.8l10.9,15.4
	c-5.8,4.8-12.5,8.5-19.7,10.9c-7.7,2.6-15.7,3.9-23.8,3.9c-18.3,0-32.5-5.7-42.6-17.1c-10.1-11.4-15.2-26.6-15.2-45.7
	c-0.2-11.1,2.1-22.1,6.6-32.3c4-9.2,10.7-17,19-22.5c8.3-5.4,18-8.2,29-8.2c15.9,0,28.4,5.3,37.7,16s13.9,25.3,13.9,43.9
	c0,3.8-0.2,7.6-0.7,11.3h-79.3C165.4,195.4,168.8,204.2,174.8,210z M173.3,140.3c-5.1,5.9-8.1,14.7-8.8,26.3H220
	c-0.3-11.3-2.7-20-7.3-26.1c-4.5-6-11-9.1-19.5-9.1C185.1,131.4,178.4,134.4,173.3,140.3L173.3,140.3z"/>
<path class="st2" d="M267.6,115.8h22l1.8,15.6c4.8-5.9,10.8-10.6,17.6-13.9c6.6-3.2,13.8-4.9,21.2-4.9c11,0,19.3,3.1,24.9,9.3
	c5.6,6.2,8.4,15,8.4,26.3v87.3h-25.4v-74.6c0.1-5.7-0.3-11.5-1.2-17.1c-0.8-4-2.5-6.9-4.9-8.8c-2.4-1.9-6-2.8-10.9-2.8
	c-5.6,0-11,1.8-15.5,5c-4.9,3.3-9.2,7.6-12.6,12.5v85.9h-25.4V115.8z"/>
<path class="st2" d="M484.3,216.3c1.4,2.2,3.7,3.8,7,4.9l-5.9,17.2c-12.5-1.5-20.8-7-24.7-16.5c-4.4,5.4-10,9.7-16.4,12.4
	c-6.9,2.9-14.2,4.3-21.6,4.2c-12.1,0-21.7-3.4-28.8-10.2c-7.1-6.8-10.7-15.8-10.7-27c0-12.5,4.9-22.2,14.8-29s23.9-10.2,42-10.2h17
	v-7.7c0-7.6-2.3-13.1-6.8-16.5c-4.5-3.5-11.1-5.2-19.7-5.2c-4.9,0.1-9.9,0.6-14.7,1.6c-5.8,1.1-11.4,2.6-17,4.5l-6.3-17.9
	c14.4-5.4,28.3-8.2,41.9-8.2c15.9,0,27.8,3.5,35.8,10.4c8,7,12,16.8,12,29.7v53.5C482.2,210.8,482.9,214.1,484.3,216.3z
	 M445.4,215.8c4.8-2.7,8.9-6.6,11.7-11.3V178H443c-11.5,0-19.9,1.9-25.2,5.8c-5.3,3.9-7.9,9.4-7.9,16.7c0,6.3,1.7,11.2,5.1,14.5
	s8.4,5,15.1,5C435.5,219.8,440.7,218.4,445.4,215.8L445.4,215.8z"/>
</svg>
