<?xml version="1.0" encoding="utf-8"?>
<!-- Generator: Adobe Illustrator 21.0.0, SVG Export Plug-In . SVG Version: 6.00 Build 0)  -->
<svg version="1.1" id="Layer_1" xmlns="http://www.w3.org/2000/svg" xmlns:xlink="http://www.w3.org/1999/xlink" x="0px" y="0px"
	 viewBox="0 0 50 21.2" style="enable-background:new 0 0 50 21.2;" xml:space="preserve">
<style type="text/css">
	.st0{fill:#A0A1A3;}
	.st1{fill:#C21382;}
	.st2{fill:#1890FF;}
	.st3{fill:#1F2125;}
</style>
<title>nav-logo</title>
<g>
	<path class="st0" d="M14.9,16l1.9,2.7c-1,0.8-2,1.4-3.2,1.8s-2.5,0.7-3.8,0.7c-3.1,0-5.5-1-7.2-2.9C0.9,16.5,0,13.9,0,10.7
		c0-1.9,0.4-3.8,1.2-5.5c0.7-1.6,1.9-2.9,3.4-3.8C6.2,0.4,8,0,9.8,0c2.5-0.1,5,0.8,7,2.5l-2,2.7c-1.4-1.1-3.1-1.6-4.9-1.7
		c-1.5-0.1-3,0.6-4,1.8s-1.5,3-1.5,5.5C4.5,13.1,5,14.9,6,16s2.3,1.7,4,1.7C11.6,17.7,13.2,17.1,14.9,16z"/>
	<path class="st1" d="M44.8,2.4c0.6-0.6,1.3-0.9,2.1-0.9s1.6,0.3,2.2,0.9c1.2,1.2,1.2,3.1,0,4.3c-0.6,0.6-1.4,0.9-2.2,0.9
		s-1.6-0.3-2.1-0.9C43.6,5.6,43.6,3.7,44.8,2.4C44.8,2.5,44.8,2.4,44.8,2.4z"/>
	<path class="st2" d="M44.8,14.5c1.2-1.2,3.1-1.2,4.3,0c0.6,0.6,0.9,1.3,0.9,2.1c0,0.8-0.3,1.6-0.9,2.2c-1.2,1.2-3.1,1.2-4.3,0
		C43.6,17.5,43.6,15.6,44.8,14.5z"/>
	<path class="st3" d="M39.4,1.3c0.7,0.9,1.1,2.4,1.1,4.5v15.3h-3.9V6.5c0-1.1-0.1-1.9-0.3-2.4c-0.2-0.4-0.5-0.7-1.1-0.7
		c-1.1,0-2.1,0.7-3.1,2.1v15.7h-3.5V6.5c0-1.1-0.1-1.9-0.3-2.4c-0.2-0.4-0.5-0.7-1.1-0.7c-1.1,0-2.1,0.7-3.1,2.1v15.7h-3.9V0.6h3.3
		l0.3,2.2c0.5-0.8,1.2-1.5,2-2.1C26.6,0.2,27.5,0,28.3,0c1.8,0,3,0.9,3.5,2.6c0.6-0.8,1.2-1.4,2-1.9S35.5,0,36.4,0
		C37.7,0,38.7,0.4,39.4,1.3z"/>
</g>
</svg>
