<svg xmlns="http://www.w3.org/2000/svg" viewBox="0 0 442 187.33058"><title>nav-logo</title><path d="M161.013,153.06979l17.14611,24.26337a88.93639,88.93639,0,0,1-28.469,16.17558,101.33866,101.33866,0,0,1-33.96872,5.82322c-27.175,0-48.52674-8.4113-63.73179-25.23392-15.205-16.49909-22.96932-39.1449-22.96932-67.29041A110.585,110.585,0,0,1,39.37261,57.95737,79.64315,79.64315,0,0,1,69.45919,24.31216a88.21762,88.21762,0,0,1,46.58567-12.29344A93.66918,93.66918,0,0,1,177.83558,33.694L160.366,57.31034A75.3927,75.3927,0,0,0,117.0154,42.42881,42.02439,42.02439,0,0,0,82.07614,58.60439c-8.41131,10.67588-12.94046,26.85146-12.94046,48.52674,0,21.02825,4.20565,36.55681,12.94046,46.58566,8.4113,10.02885,20.38123,14.88153,34.93925,14.88153C131.24991,168.27485,145.80793,163.09864,161.013,153.06979Z" transform="translate(-29 -12.00138)" fill="#b6b8bc"/><path d="M425.10569,33.51327A26.00121,26.00121,0,0,1,444.029,25.4852a24.95836,24.95836,0,0,1,19.21006,8.02807,26.99859,26.99859,0,0,1,0,37.84661A26.649,26.649,0,0,1,444.029,79.38794a26.00121,26.00121,0,0,1-18.92332-8.02807A26.48117,26.48117,0,0,1,425.10569,33.51327Zm0,106.37192a27.35089,27.35089,0,0,1,38.13329,0,26.90682,26.90682,0,0,1,7.74139,18.9233,25.72687,25.72687,0,0,1-7.74139,19.21,27.083,27.083,0,0,1-38.13329,0C414.49722,167.12328,414.49722,150.207,425.10569,139.88519Z" transform="translate(-29 -12.00138)" fill="#e01f8f"/><path d="M377.20543,23.75484c6.40681,7.7797,9.61022,21.20348,9.61022,40.11884V199.332H352.646V69.06014c0-10.06785-.76272-17.23737-2.28815-21.051-1.52543-3.96613-4.72883-5.94917-9.9153-5.94917q-14.41533,0-27.00014,18.30517V199.33193H282.17109V69.06014c0-10.06785-.76272-17.23737-2.28815-21.051-1.52543-3.96613-4.72883-5.94917-9.9153-5.94917q-14.41532,0-27.00013,18.30517V199.33193H208.49277V16.8904H237.476l2.74577,19.67805a72.0288,72.0288,0,0,1,17.695-18.30517A36.98114,36.98114,0,0,1,279.42531,12.009c16.16957,0,26.5425,7.7797,31.11879,23.18655a68.56362,68.56362,0,0,1,18.00009-17.08482A40.69654,40.69654,0,0,1,350.66294,12.009C361.95112,12.009,370.79863,15.97513,377.20543,23.75484Z" transform="translate(-29 -12.00138)" fill="#1f2125"/></svg>